<mxfile host="app.diagrams.net" modified="2023-10-20T10:45:53.511Z" agent="Mozilla/5.0 (Windows NT 10.0; Win64; x64) AppleWebKit/537.36 (KHTML, like Gecko) Chrome/118.0.0.0 Safari/537.36" etag="z-X_N9y3ygJOrBjMI59Y" version="22.0.5" type="github">
  <diagram name="Страница — 1" id="YJFGdb6L9-rzs6ma3REL">
    <mxGraphModel dx="2514" dy="2098" grid="1" gridSize="10" guides="1" tooltips="1" connect="1" arrows="1" fold="1" page="1" pageScale="1" pageWidth="827" pageHeight="1169" math="0" shadow="0">
      <root>
        <mxCell id="0" />
        <mxCell id="1" parent="0" />
        <mxCell id="FdN3LPhrk9Z8SMEkUwBf-3" value="" style="edgeStyle=orthogonalEdgeStyle;rounded=0;orthogonalLoop=1;jettySize=auto;html=1;" parent="1" source="FdN3LPhrk9Z8SMEkUwBf-18" target="FdN3LPhrk9Z8SMEkUwBf-2" edge="1">
          <mxGeometry relative="1" as="geometry" />
        </mxCell>
        <mxCell id="FdN3LPhrk9Z8SMEkUwBf-1" value="Начало" style="ellipse;whiteSpace=wrap;html=1;aspect=fixed;" parent="1" vertex="1">
          <mxGeometry x="360" y="-80" width="80" height="80" as="geometry" />
        </mxCell>
        <mxCell id="FdN3LPhrk9Z8SMEkUwBf-5" value="" style="edgeStyle=orthogonalEdgeStyle;rounded=0;orthogonalLoop=1;jettySize=auto;html=1;" parent="1" source="FdN3LPhrk9Z8SMEkUwBf-2" target="FdN3LPhrk9Z8SMEkUwBf-4" edge="1">
          <mxGeometry relative="1" as="geometry" />
        </mxCell>
        <mxCell id="FdN3LPhrk9Z8SMEkUwBf-6" value="Да" style="edgeLabel;html=1;align=center;verticalAlign=middle;resizable=0;points=[];" parent="FdN3LPhrk9Z8SMEkUwBf-5" vertex="1" connectable="0">
          <mxGeometry x="-0.1902" y="-2" relative="1" as="geometry">
            <mxPoint as="offset" />
          </mxGeometry>
        </mxCell>
        <mxCell id="FdN3LPhrk9Z8SMEkUwBf-2" value="Впереди на расстоянии 3см есть объект?" style="html=1;whiteSpace=wrap;aspect=fixed;shape=isoRectangle;" parent="1" vertex="1">
          <mxGeometry x="284.17" y="190" width="231.67" height="139" as="geometry" />
        </mxCell>
        <mxCell id="FdN3LPhrk9Z8SMEkUwBf-8" value="" style="edgeStyle=orthogonalEdgeStyle;rounded=0;orthogonalLoop=1;jettySize=auto;html=1;" parent="1" source="FdN3LPhrk9Z8SMEkUwBf-4" target="FdN3LPhrk9Z8SMEkUwBf-7" edge="1">
          <mxGeometry relative="1" as="geometry" />
        </mxCell>
        <mxCell id="FdN3LPhrk9Z8SMEkUwBf-9" value="Нет" style="edgeLabel;html=1;align=center;verticalAlign=middle;resizable=0;points=[];" parent="FdN3LPhrk9Z8SMEkUwBf-8" vertex="1" connectable="0">
          <mxGeometry x="-0.1941" y="-1" relative="1" as="geometry">
            <mxPoint as="offset" />
          </mxGeometry>
        </mxCell>
        <mxCell id="FdN3LPhrk9Z8SMEkUwBf-4" value="Справа на расстоянии 3см есть объект?" style="html=1;whiteSpace=wrap;aspect=fixed;shape=isoRectangle;" parent="1" vertex="1">
          <mxGeometry x="-14" y="184.5" width="250" height="150" as="geometry" />
        </mxCell>
        <mxCell id="FdN3LPhrk9Z8SMEkUwBf-12" value="" style="edgeStyle=orthogonalEdgeStyle;rounded=0;orthogonalLoop=1;jettySize=auto;html=1;" parent="1" source="FdN3LPhrk9Z8SMEkUwBf-7" target="FdN3LPhrk9Z8SMEkUwBf-11" edge="1">
          <mxGeometry relative="1" as="geometry" />
        </mxCell>
        <mxCell id="FdN3LPhrk9Z8SMEkUwBf-7" value="Повернуться вправо на 90" style="rounded=0;whiteSpace=wrap;html=1;" parent="1" vertex="1">
          <mxGeometry x="26.5" y="380" width="169" height="100" as="geometry" />
        </mxCell>
        <mxCell id="FdN3LPhrk9Z8SMEkUwBf-14" value="" style="edgeStyle=orthogonalEdgeStyle;rounded=0;orthogonalLoop=1;jettySize=auto;html=1;" parent="1" source="FdN3LPhrk9Z8SMEkUwBf-11" target="FdN3LPhrk9Z8SMEkUwBf-13" edge="1">
          <mxGeometry relative="1" as="geometry" />
        </mxCell>
        <mxCell id="FdN3LPhrk9Z8SMEkUwBf-11" value="Начать движение вперед" style="rounded=0;whiteSpace=wrap;html=1;" parent="1" vertex="1">
          <mxGeometry x="26.5" y="530" width="169" height="100" as="geometry" />
        </mxCell>
        <mxCell id="FdN3LPhrk9Z8SMEkUwBf-20" value="" style="edgeStyle=orthogonalEdgeStyle;rounded=0;orthogonalLoop=1;jettySize=auto;html=1;" parent="1" source="FdN3LPhrk9Z8SMEkUwBf-13" target="FdN3LPhrk9Z8SMEkUwBf-16" edge="1">
          <mxGeometry relative="1" as="geometry" />
        </mxCell>
        <mxCell id="FdN3LPhrk9Z8SMEkUwBf-23" value="Нет" style="edgeLabel;html=1;align=center;verticalAlign=middle;resizable=0;points=[];" parent="FdN3LPhrk9Z8SMEkUwBf-20" vertex="1" connectable="0">
          <mxGeometry x="-0.1813" relative="1" as="geometry">
            <mxPoint as="offset" />
          </mxGeometry>
        </mxCell>
        <mxCell id="FdN3LPhrk9Z8SMEkUwBf-13" value="Слева на расстоянии 3 см есть объект?" style="html=1;whiteSpace=wrap;aspect=fixed;shape=isoRectangle;" parent="1" vertex="1">
          <mxGeometry x="284.17" y="507" width="243.33" height="146" as="geometry" />
        </mxCell>
        <mxCell id="FdN3LPhrk9Z8SMEkUwBf-22" value="" style="edgeStyle=orthogonalEdgeStyle;rounded=0;orthogonalLoop=1;jettySize=auto;html=1;" parent="1" source="FdN3LPhrk9Z8SMEkUwBf-16" target="FdN3LPhrk9Z8SMEkUwBf-21" edge="1">
          <mxGeometry relative="1" as="geometry" />
        </mxCell>
        <mxCell id="FdN3LPhrk9Z8SMEkUwBf-16" value="Повернуться на 90 влево" style="rounded=0;whiteSpace=wrap;html=1;" parent="1" vertex="1">
          <mxGeometry x="321.34" y="710" width="169" height="100" as="geometry" />
        </mxCell>
        <mxCell id="FdN3LPhrk9Z8SMEkUwBf-19" value="" style="edgeStyle=orthogonalEdgeStyle;rounded=0;orthogonalLoop=1;jettySize=auto;html=1;" parent="1" source="FdN3LPhrk9Z8SMEkUwBf-1" target="FdN3LPhrk9Z8SMEkUwBf-18" edge="1">
          <mxGeometry relative="1" as="geometry">
            <mxPoint x="400" as="sourcePoint" />
            <mxPoint x="400" y="190" as="targetPoint" />
          </mxGeometry>
        </mxCell>
        <mxCell id="FdN3LPhrk9Z8SMEkUwBf-18" value="Начать движение вперед" style="rounded=0;whiteSpace=wrap;html=1;" parent="1" vertex="1">
          <mxGeometry x="315.5" y="50" width="169" height="100" as="geometry" />
        </mxCell>
        <mxCell id="FdN3LPhrk9Z8SMEkUwBf-26" value="" style="edgeStyle=orthogonalEdgeStyle;rounded=0;orthogonalLoop=1;jettySize=auto;html=1;" parent="1" source="FdN3LPhrk9Z8SMEkUwBf-21" target="FdN3LPhrk9Z8SMEkUwBf-25" edge="1">
          <mxGeometry relative="1" as="geometry" />
        </mxCell>
        <mxCell id="FdN3LPhrk9Z8SMEkUwBf-21" value="Начать движение вперед" style="rounded=0;whiteSpace=wrap;html=1;" parent="1" vertex="1">
          <mxGeometry x="26.5" y="710" width="169" height="100" as="geometry" />
        </mxCell>
        <mxCell id="FdN3LPhrk9Z8SMEkUwBf-28" value="" style="edgeStyle=orthogonalEdgeStyle;rounded=0;orthogonalLoop=1;jettySize=auto;html=1;" parent="1" source="FdN3LPhrk9Z8SMEkUwBf-25" target="FdN3LPhrk9Z8SMEkUwBf-27" edge="1">
          <mxGeometry relative="1" as="geometry" />
        </mxCell>
        <mxCell id="FdN3LPhrk9Z8SMEkUwBf-29" value="Нет" style="edgeLabel;html=1;align=center;verticalAlign=middle;resizable=0;points=[];" parent="FdN3LPhrk9Z8SMEkUwBf-28" vertex="1" connectable="0">
          <mxGeometry x="0.0745" y="1" relative="1" as="geometry">
            <mxPoint as="offset" />
          </mxGeometry>
        </mxCell>
        <mxCell id="FdN3LPhrk9Z8SMEkUwBf-25" value="Слева на расстоянии 3 см есть объект?" style="html=1;whiteSpace=wrap;aspect=fixed;shape=isoRectangle;" parent="1" vertex="1">
          <mxGeometry x="-10.669999999999984" y="870" width="243.33" height="146" as="geometry" />
        </mxCell>
        <mxCell id="FdN3LPhrk9Z8SMEkUwBf-31" value="" style="edgeStyle=orthogonalEdgeStyle;rounded=0;orthogonalLoop=1;jettySize=auto;html=1;" parent="1" source="FdN3LPhrk9Z8SMEkUwBf-27" target="FdN3LPhrk9Z8SMEkUwBf-30" edge="1">
          <mxGeometry relative="1" as="geometry" />
        </mxCell>
        <mxCell id="FdN3LPhrk9Z8SMEkUwBf-27" value="Повернуться на 90 влево" style="rounded=0;whiteSpace=wrap;html=1;" parent="1" vertex="1">
          <mxGeometry x="315.5" y="893" width="169" height="100" as="geometry" />
        </mxCell>
        <mxCell id="FdN3LPhrk9Z8SMEkUwBf-34" value="" style="edgeStyle=orthogonalEdgeStyle;rounded=0;orthogonalLoop=1;jettySize=auto;html=1;" parent="1" source="FdN3LPhrk9Z8SMEkUwBf-30" target="FdN3LPhrk9Z8SMEkUwBf-33" edge="1">
          <mxGeometry relative="1" as="geometry" />
        </mxCell>
        <mxCell id="FdN3LPhrk9Z8SMEkUwBf-30" value="Начать движение вперед" style="rounded=0;whiteSpace=wrap;html=1;" parent="1" vertex="1">
          <mxGeometry x="315.5" y="1080" width="169" height="100" as="geometry" />
        </mxCell>
        <mxCell id="FdN3LPhrk9Z8SMEkUwBf-37" value="" style="edgeStyle=orthogonalEdgeStyle;rounded=0;orthogonalLoop=1;jettySize=auto;html=1;" parent="1" source="FdN3LPhrk9Z8SMEkUwBf-33" target="FdN3LPhrk9Z8SMEkUwBf-36" edge="1">
          <mxGeometry relative="1" as="geometry" />
        </mxCell>
        <mxCell id="FdN3LPhrk9Z8SMEkUwBf-33" value="Слева на расстоянии 3 см есть объект?" style="html=1;whiteSpace=wrap;aspect=fixed;shape=isoRectangle;" parent="1" vertex="1">
          <mxGeometry x="-10.669999999999984" y="1057" width="243.33" height="146" as="geometry" />
        </mxCell>
        <mxCell id="FdN3LPhrk9Z8SMEkUwBf-39" value="" style="edgeStyle=orthogonalEdgeStyle;rounded=0;orthogonalLoop=1;jettySize=auto;html=1;" parent="1" source="FdN3LPhrk9Z8SMEkUwBf-36" target="FdN3LPhrk9Z8SMEkUwBf-38" edge="1">
          <mxGeometry relative="1" as="geometry" />
        </mxCell>
        <mxCell id="FdN3LPhrk9Z8SMEkUwBf-36" value="Повернуться вправо на 90" style="rounded=0;whiteSpace=wrap;html=1;" parent="1" vertex="1">
          <mxGeometry x="26.5" y="1300" width="169" height="100" as="geometry" />
        </mxCell>
        <mxCell id="FdN3LPhrk9Z8SMEkUwBf-38" value="Начать движение вперед" style="rounded=0;whiteSpace=wrap;html=1;" parent="1" vertex="1">
          <mxGeometry x="315.49999999999994" y="1300" width="169" height="100" as="geometry" />
        </mxCell>
      </root>
    </mxGraphModel>
  </diagram>
</mxfile>
